<?xml version="1.0" encoding="utf-8"?>
<!-- Generator: Adobe Illustrator 25.1.0, SVG Export Plug-In . SVG Version: 6.00 Build 0)  -->
<svg version="1.1" id="Capa_1" xmlns="http://www.w3.org/2000/svg" xmlns:xlink="http://www.w3.org/1999/xlink" x="0px" y="0px"
	 width="90px" height="14px" viewBox="0 0 90 14" style="enable-background:new 0 0 90 14;" xml:space="preserve">
<style type="text/css">
	.st0{fill-rule:evenodd;clip-rule:evenodd;fill:#FF010B;}
</style>
<g>
	<g>
		<g>
			<path class="st0" d="M74.5,10.4c-0.5-0.1-0.6-0.4-0.6-0.8c0-2,0-3.9,0-5.9c0-0.4-0.1-0.5-0.5-0.4c-1,0.1-2,0.2-2.9,0.3
				c-0.2,0-0.4-0.1-0.5,0.2c-0.1,0.3,0.2,0.4,0.3,0.4C70.8,4.5,71,4.9,71,5.5c0,1.4,0,2.7,0,4.1c0,0.6-0.3,0.9-0.8,0.9
				c-0.6,0-0.8-0.3-0.8-0.8c0-1.5,0-3,0-4.5c0,0,0,0,0,0c0-1.5,0-3.1,0-4.6c0-0.4-0.2-0.4-0.5-0.4c-1,0.1-2,0.2-3.1,0.2
				c-0.2,0-0.4-0.1-0.4,0.2c0,0.3,0.1,0.3,0.3,0.4c0.5,0.2,0.7,0.5,0.7,1.1c0,2.5,0,5,0,7.5c0,0.5-0.1,0.8-0.6,0.8
				c-0.2,0-0.4,0.2-0.3,0.4c0,0.3,0.2,0.2,0.4,0.2c2.9,0,5.7,0,8.6,0c0.2,0,0.3,0,0.4-0.2C74.8,10.5,74.7,10.4,74.5,10.4z
				 M56.4,10.1c-0.5-0.1-0.6-0.5-0.6-1c0-1.8,0-3.6,0-5.3c0-0.4-0.1-0.6-0.6-0.6c-0.9,0.1-1.8,0.2-2.7,0.3c-0.2,0-0.5-0.1-0.6,0.2
				c-0.1,0.3,0.2,0.4,0.4,0.5c0.4,0.2,0.6,0.6,0.6,1.1c0,1.2,0,2.5,0,3.7c0,0.4-0.1,0.5-0.5,0.6C51.3,9.7,51,9.4,51,8.4
				c0-1.5,0-3,0-4.5c0-0.7,0-0.7-0.7-0.6c-0.9,0.1-1.8,0.2-2.7,0.3c-0.2,0-0.4-0.1-0.5,0.2C47,4,47.3,4.1,47.5,4.2
				c0.5,0.2,0.6,0.6,0.6,1.1c0,1.2,0,2.4,0,3.7c0,1.8,1,2.5,2.8,2.1c0.3-0.1,0.6-0.2,0.9-0.3c0.4-0.2,0.8-0.4,1.2-0.7
				c0,0.2,0,0.4,0,0.5c-0.1,0.5,0.1,0.6,0.6,0.6c0.9-0.2,1.8-0.3,2.7-0.4c0.1,0,0.4,0,0.4-0.2C56.7,10.3,56.6,10.2,56.4,10.1z
				 M8.9,7.2c-0.3-0.1-0.5,0-0.6,0.3C8.1,8.1,7.7,8.6,7.5,9.2C7,10,6.3,10.3,5.4,10.2c-0.8,0-1-0.2-1-0.9c0-2.3,0-4.5,0-6.8
				c0-0.5,0.2-0.9,0.8-0.9c0.2,0,0.4-0.1,0.4-0.4C5.6,0.9,5.4,1,5.2,1C3.6,1,2,1,0.4,1C0.2,1,0,0.9,0,1.2c0,0.2,0,0.4,0.3,0.4
				C1,1.6,1.1,2.1,1.1,2.7c0,1.3,0,2.6,0,3.9c0,0.9,0,1.9,0,2.8c0,0.5,0,1-0.7,1c-0.2,0-0.4,0.1-0.4,0.4C0,11.1,0.3,11,0.5,11
				c2.3,0,4.7,0,7,0c1.3,0,1.3,0,1.4-1.3L9,8.8C9,8.4,9,8,9,7.7C9,7.5,9.2,7.3,8.9,7.2z M80,9.7c-0.8,0-1.6-0.1-1.9-0.8
				c-0.8-1.4-0.7-2.9-0.2-4.3c0.2-0.5,0.6-0.7,1.2-0.6c0.6,0,0.4,0.5,0.5,0.8c0.2,0.7,0.5,1,1.1,1.1c0.6,0,1.1-0.3,1.2-0.9
				c0.1-0.6-0.1-1.1-0.7-1.4c-0.5-0.3-1.1-0.3-1.6-0.3c-2.6,0-5,1.2-4.9,4.2c0.1,1.7,0.9,3,2.4,3.5c1.8,0.6,3.7,0.1,4.8-1.2
				c0.1-0.1,0.1-0.4,0-0.5C81.3,9.4,80.7,9.6,80,9.7z M72.3,2.8c0.9,0,1.6-0.5,1.6-1.4c0-0.8-0.6-1.4-1.5-1.4
				c-0.9,0-1.6,0.5-1.6,1.3C70.8,2.1,71.4,2.7,72.3,2.8z M50.9,2.7c0.9-0.2,1.7-0.3,2.6-0.5c0.4-0.1,0.6-0.4,0.6-0.9
				c0-0.4-0.2-0.8-0.5-0.9c-0.4-0.2-0.8-0.1-1.1,0.2c-0.6,0.6-1.2,1.1-1.8,1.7c-0.1,0.1-0.1,0.2-0.1,0.3C50.7,2.7,50.8,2.7,50.9,2.7
				z M30.5,10.4c-0.4-0.1-0.6-0.3-0.7-0.6c-0.7-1-1.3-2.1-1.8-3.2c-0.2-0.3-0.2-0.5,0.2-0.7c0.6-0.2,1.1-0.6,1.3-1.3
				c0.5-1.6-0.2-2.9-1.9-3.4c-0.3-0.1-0.7-0.2-1-0.2C24.4,0.9,22.2,1,20,1c-0.2,0-0.3,0-0.3,0.2c0,0.2,0.1,0.3,0.3,0.4
				c0.7,0.1,0.8,0.5,0.8,1c0,1.1,0,2.2,0,3.3c0,1.2,0,2.3,0,3.5c0,0.5-0.1,0.9-0.7,0.9c-0.2,0-0.3,0.2-0.3,0.4
				c0,0.3,0.2,0.2,0.4,0.2c1.6,0,3.1,0,4.7,0c0.2,0,0.4,0,0.4-0.3c0-0.2-0.1-0.3-0.3-0.3c-0.6-0.1-0.7-0.5-0.7-1c0-0.7,0-1.4,0-2.1
				c0-0.2-0.2-0.5,0.2-0.6c0.4-0.1,0.4,0.2,0.5,0.4c0.5,1.2,1,2.3,1.7,3.4c0.1,0.2,0.3,0.4,0.6,0.4c1.1,0,2.2,0,3.2,0
				c0.1,0,0.3,0.1,0.3-0.2C30.7,10.6,30.7,10.4,30.5,10.4z M26.1,5C26,5.5,25.8,5.9,25.2,6c-0.9,0.2-1.1,0.1-1.1-0.8
				c0-0.4,0-0.9,0-1.3c0-0.6,0-1.1,0-1.7c0-0.3,0.1-0.4,0.4-0.4c1-0.1,1.5,0.2,1.6,1.2C26.2,3.6,26.2,4.3,26.1,5z M44.4,3.2
				c-1,0-1.8,0.4-2.7,1.1c0-0.2,0-0.3,0-0.4c0-0.7,0-0.7-0.7-0.7c-0.9,0.1-1.7,0.2-2.6,0.3c-0.2,0-0.4-0.1-0.5,0.1
				c-0.1,0.3,0.1,0.4,0.3,0.5c0.5,0.3,0.6,0.7,0.6,1.2c0,2.4,0,4.8,0,7.2c0,0.4-0.1,0.7-0.6,0.8c-0.2,0-0.4,0.1-0.4,0.4
				c0,0.3,0.3,0.2,0.5,0.2c1.3,0,2.6,0,3.9,0c0.2,0,0.4,0.1,0.5-0.2c0-0.3-0.2-0.4-0.4-0.4c-0.4-0.1-0.6-0.3-0.5-0.7
				c0-0.2,0-0.4,0-0.6c0-0.3-0.1-0.7,0-0.9c0.2-0.3,0.7,0,1,0c2.1,0,3.5-0.9,4.1-2.6c0.3-1.1,0.4-2.2,0.1-3.2
				C46.7,4,45.7,3.3,44.4,3.2z M44,9.6c-0.2,0.7-1,1-1.7,0.7c-0.3-0.1-0.5-0.3-0.5-0.7c0-0.7,0-1.5,0-2.2c0-0.7,0-1.4,0-2.2
				c0-0.4,0.1-0.5,0.5-0.5c0.9-0.2,1.5,0.1,1.8,1C44.4,7.1,44.3,8.4,44,9.6z M65.5,6c-0.3-1.9-1.6-3-3.4-2.7c-0.7,0.1-1.3,0.5-1.9,1
				c0-1.3,0-2.4,0-3.6c0-0.4-0.1-0.6-0.6-0.5c-1,0.1-2,0.2-2.9,0.2c-0.1,0-0.4,0-0.4,0.2c0,0.2,0.1,0.3,0.3,0.4
				c0.6,0.2,0.7,0.6,0.7,1.2c0,2.5,0,5.1,0,7.6c0,0.4,0.1,0.6,0.5,0.7c1.3,0.6,2.6,0.7,4,0.6c2.1-0.1,3.4-1.3,3.8-3.3
				C65.5,7.2,65.6,6.6,65.5,6z M62.3,9.5c-0.2,0.8-0.9,1.1-1.6,0.8c-0.4-0.1-0.6-0.4-0.6-0.8c0-0.7,0-1.4,0-2.1c0-0.7,0-1.5,0-2.2
				c0-0.3,0.1-0.4,0.4-0.5c1-0.2,1.6,0.1,1.8,1C62.7,7,62.6,8.3,62.3,9.5z M16.8,10.1c-0.6-0.1-0.7-0.4-0.7-0.9c0-1.2,0-2.5,0-3.7
				c0-1.2-0.5-1.9-1.8-2.1c-1.2-0.2-2.4-0.2-3.7,0.1c-0.4,0.1-0.8,0.3-1.1,0.6C9.1,4.6,9.2,5.3,9.7,5.6c0.8,0.5,1.8,0.1,2-0.8
				c0-0.2,0.1-0.3,0.1-0.5c0-0.4,0.3-0.5,0.7-0.4C12.9,4,13,4.2,13.1,4.5c0.1,0.4,0.1,0.9,0.1,1.3c0,0.5-0.1,0.7-0.6,0.8
				c-0.8,0.1-1.6,0.4-2.3,0.7C9.6,7.7,9.2,8.1,9.1,8.8c0,0.1,0,0.6,0,0.8c0.1,0.8,0.7,1.3,1.5,1.4c0.9,0.2,1.8,0.1,2.6-0.6
				c0.1-0.1,0.2-0.3,0.4-0.1c0.8,0.8,2.6,0.9,3.5,0.2c0.2-0.1,0.2-0.3,0.2-0.4C17.1,10.1,16.9,10.1,16.8,10.1z M12.8,9.9
				c-0.3,0.1-0.6,0-0.8-0.3c-0.3-0.6-0.3-1.2,0-1.8c0.2-0.4,0.6-0.4,1-0.4c0.2,0,0.2,0.2,0.2,0.3c0,0.3,0,0.6,0,0.9
				c0,0.3,0,0.5,0,0.8C13.2,9.6,13.1,9.8,12.8,9.9z M89.7,10.1C89.1,10,89,9.7,89,9.2c0-1.3,0-2.5,0-3.8c0-1.1-0.5-1.8-1.7-2
				c-1-0.2-2.1-0.2-3.2,0c-0.5,0.1-1,0.2-1.4,0.5c-0.5,0.3-0.7,0.8-0.5,1.3c0.2,0.5,0.6,0.7,1.1,0.7c0.7,0,1.1-0.2,1.3-0.7
				c0.1-0.3,0.1-0.5,0.1-0.8c0-0.3,0.2-0.4,0.5-0.4c0.4,0,0.7,0.2,0.8,0.7c0.1,0.5,0,1.1,0.1,1.6c0,0.3-0.1,0.4-0.4,0.5
				C84.9,6.8,84,7,83.3,7.3c-0.7,0.3-1.3,0.8-1.3,1.6c0,0.2,0,0.5,0,0.8c0.2,0.7,0.7,1.2,1.4,1.3c1,0.2,1.8,0.1,2.6-0.5
				c0.1-0.1,0.1-0.3,0.4-0.1c0.8,0.8,2.6,1,3.5,0.3c0.2-0.1,0.2-0.3,0.2-0.4C90,10.1,89.8,10.1,89.7,10.1z M85.7,9.9
				c-0.3,0.1-0.6-0.1-0.8-0.3c-0.3-0.6-0.3-1.2,0-1.8c0.2-0.4,0.6-0.4,1-0.4c0.2,0,0.2,0.2,0.2,0.3c0,0.3,0,0.6,0,0.9
				c0,0.2,0,0.5,0,0.7C86.1,9.6,86,9.8,85.7,9.9z M36,9.7c-1.6,0.1-2.4-0.4-2.6-2c0-0.1,0-0.2-0.1-0.3c-0.1-0.4,0-0.5,0.5-0.5
				c1.3,0,2.6,0,3.9,0c0.4,0,0.4-0.1,0.4-0.4c-0.1-2-1.3-3.1-3.4-3.2C33,3.1,31.4,4,30.8,5.5c-0.7,1.6-0.3,3.7,0.8,4.7
				c1.5,1.4,4.8,1.2,6.1-0.4c0.2-0.2,0.2-0.4,0.1-0.7C37.2,9.4,36.6,9.6,36,9.7z M33.3,5.3c0-0.3,0.1-0.7,0.3-1
				c0.2-0.3,0.4-0.5,0.8-0.5c0.4,0,0.6,0.3,0.7,0.6c0.2,0.5,0.1,0.9,0.2,1.4c0,0.2-0.1,0.3-0.3,0.3c-0.3,0-0.6,0-0.8,0
				C33.2,6.2,33.2,6.2,33.3,5.3z"/>
		</g>
	</g>
</g>
</svg>
