<svg xmlns="http://www.w3.org/2000/svg" width="211" height="34" fill-rule="evenodd" fill="#d82238"><path d="M162.5 12.3v11c0 1.4.6 2 1.9 2s1.9-.7 1.9-2.1v-10c0-1.4-.3-2.5-1.6-3.2-.4-.2-.9-.5-.8-1.1.2-.7.8-.4 1.2-.4l6.9-.7c.9-.1 1.1.2 1.1 1.1l-.1 14.3c0 1.1.2 1.9 1.4 2.1.5.1.7.3.7.9s-.5.5-.8.5h-20.1c-.4 0-.8.2-.9-.5-.1-.6.2-.9.7-1 1.2-.1 1.5-.9 1.5-2V5c0-1.3-.4-2.2-1.6-2.6-.5-.2-.9-.4-.8-1 .1-.7.7-.5 1-.5l7.2-.6c.7-.1 1.2.1 1.1 1 .2 3.5.2 7.3.1 11zm-38.3 12.1l-2.8 1.7c-.7.4-1.4.6-2.2.8-4.2 1-6.5-.9-6.5-5.2v-8.9c0-1.2-.3-2.1-1.4-2.7-.4-.2-1.1-.5-.8-1.1.2-.6.7-.3 1.1-.4l6.3-.7c1.7-.2 1.7-.1 1.7 1.5v11c0 2.5.9 3.2 3.3 2.7.9-.2 1.1-.5 1.1-1.4v-9.1c0-1.2-.3-2-1.4-2.6-.4-.2-1.1-.4-.9-1.1s.9-.4 1.3-.5l6.4-.7c1.1-.1 1.4.3 1.4 1.4v13c0 1.2.2 2.1 1.5 2.4.5.1.6.4.6.9 0 .6-.5.5-.9.5l-6.3 1c-1.2.2-1.6-.2-1.5-1.3v-1.2zm-103.4-.8c-.2 3.1-.2 3.1-3.3 3.1H1.1c-.4 0-1 .3-1.1-.5-.1-.7.3-.9.9-1 1.6-.2 1.6-1.3 1.7-2.5V6.5c0-1.4-.2-2.6-1.9-2.7-.6-.1-.7-.5-.7-1 0-.6.5-.5.9-.5h11.3c.4 0 .9-.2 1 .5s-.4.8-.9.9c-1.4.1-1.9 1-1.9 2.3v16.5c0 1.8.4 2.2 2.2 2.3 2.1.1 3.8-.5 4.8-2.6.7-1.4 1.5-2.7 2-4.1.3-.7.7-.8 1.3-.7.7.2.3.7.3 1.1-.1 1-.1 1.8-.1 2.8l-.1 2.3zm171.1 0c-2.4 3.1-7 4.3-11.2 3-3.5-1.2-5.5-4.3-5.6-8.4-.3-7.5 5.3-10.4 11.5-10.3 1.3 0 2.6.2 3.8.8 1.4.7 2.1 2 1.8 3.4-.3 1.3-1.4 2.1-2.8 2.1-1.5-.1-2.3-.9-2.7-2.6-.2-.8.2-1.9-1.1-2s-2.3.4-2.8 1.6c-1.3 3.5-1.4 7.1.4 10.5.9 1.7 2.7 2 4.6 1.9 1.5-.1 2.9-.6 4.3-1.2-.1.2-.1 1-.2 1.2zM169.8 0c2.1.1 3.5 1.5 3.5 3.5s-1.7 3.4-3.8 3.3c-2-.1-3.6-1.6-3.5-3.5 0-2 1.6-3.4 3.8-3.3zm-43 3.1c0 1-.4 1.8-1.4 2.1l-6.1 1.3c-.3.1-.5.1-.7-.3-.2-.3-.1-.6.2-.8l4.2-4.1c.7-.7 1.7-.8 2.6-.4s1.2 1.2 1.2 2.2zM71.4 25.2c-.9-.2-1.3-.8-1.7-1.5-1.6-2.5-3-5.1-4.3-7.8-.4-.8-.5-1.3.6-1.6 1.5-.5 2.5-1.6 3-3.1 1.2-3.9-.5-7.1-4.5-8.2l-2.3-.5c-5.1-.4-10.1 0-15.2-.2-.4 0-.8-.1-.8.6 0 .6.2.8.7.9 1.6.1 1.8 1.2 1.8 2.5v16.6c0 1.2-.3 2.2-1.7 2.3-.6 0-.8.4-.7 1 0 .7.5.5.9.5h11c.4 0 .9.1.9-.6 0-.6-.3-.8-.8-.8-1.4-.1-1.7-1.1-1.7-2.3v-5.1c0-.5-.4-1.2.5-1.3s1 .4 1.2 1c1.1 2.9 2.4 5.7 4 8.4.3.5.6.9 1.3.9h7.6c.3 0 .7.1.8-.4-.1-.7 0-1.2-.6-1.3zM61.2 12.1c-.2 1.2-.7 2.2-2.1 2.6-2.1.6-2.6.2-2.6-1.9V5.3c0-.7.3-1 .9-1.1 2.3-.4 3.5.5 3.8 2.8a14.56 14.56 0 0 1 0 5.1zm49 .7c-.8-3-3.2-4.9-6.1-5.1-2.4-.1-4.3.9-6.2 2.6 0-.5-.1-.7-.1-.9.1-1.7 0-1.7-1.6-1.6l-6.1.7c-.4 0-.9-.2-1.1.4s.3 1 .8 1.2c1.2.7 1.5 1.6 1.5 2.9-.1 5.9 0 11.7 0 17.6 0 1-.2 1.7-1.3 1.9-.5.1-.9.3-.8.9.1.8.7.5 1.1.5h9.1c.4 0 1 .3 1.1-.5s-.4-.9-1-.9c-1-.1-1.3-.7-1.2-1.6v-1.4c0-.8-.3-1.8 0-2.3.5-.6 1.5-.1 2.3-.1 5 0 8.3-2.2 9.6-6.3.7-2.7.7-5.4 0-8zm-7.1 10.6c-.5 1.8-2.2 2.5-3.9 1.8-.7-.3-1.1-.8-1.1-1.7.1-1.8 0-3.6 0-5.4 0-1.7.1-3.5 0-5.2 0-.9.3-1.1 1.1-1.3 2.2-.4 3.6.4 4.1 2.5.7 3 .6 6.2-.2 9.3z"/><path d="M153.5 14.5c-.6-4.7-3.7-7.2-7.9-6.6-1.7.2-3.2 1.2-4.6 2.3V1.5c0-1.1-.3-1.4-1.4-1.2l-6.9.6c-.3 0-.8-.1-.9.5s.2.8.6 1c1.4.5 1.7 1.5 1.7 2.9v18.5c0 .9.3 1.4 1.1 1.8 2.9 1.5 6.1 1.8 9.3 1.6 4.9-.3 8-3.1 8.9-7.9.3-1.8.3-3.3.1-4.8zm-7.4 8.6c-.5 2-2 2.7-3.8 2-.9-.3-1.4-.9-1.4-1.9.1-1.7 0-3.4 0-5.1v-5.4c0-.8.3-1.1 1-1.2 2.2-.5 3.8.3 4.3 2.5.7 3.1.6 6.1-.1 9.1zm-106 1.8c0-.4-.4-.4-.7-.5-1.3-.1-1.7-.9-1.7-2.2v-9c0-3-1.3-4.5-4.2-5.1s-5.7-.4-8.6.3c-1 .3-1.9.7-2.6 1.5-1 1.2-.8 3.1.4 3.8 1.9 1.2 4.3.1 4.8-2.1.1-.4.1-.8.2-1.2.1-1 .7-1.2 1.6-1 .8.2 1.2.8 1.4 1.5.2 1.1.1 2.2.2 3.3.1 1.2-.3 1.8-1.5 2-1.9.3-3.7.9-5.5 1.7-1.4.7-2.5 1.8-2.7 3.4-.1.3-.1 1.5 0 1.9.3 2 1.5 3.1 3.4 3.5 2.2.5 4.3.3 6-1.4.2-.2.4-.7.9-.2 1.8 2.1 6.1 2.3 8.2.6.4-.1.5-.4.4-.8zM30 24c-.8.2-1.5 0-1.8-.8-.7-1.5-.7-3 0-4.4.4-1 1.4-.9 2.3-.9.4 0 .4.4.4.7v3.9c.1.8-.1 1.3-.9 1.5zm181 .9c0-.4-.4-.4-.7-.5-1.3-.1-1.7-1-1.7-2.2V13c0-2.7-1.2-4.3-3.9-4.9-2.5-.6-4.9-.4-7.4-.1-1.2.2-2.3.5-3.3 1.2-1.1.8-1.6 2.1-1.2 3.2.4 1.3 1.4 1.6 2.5 1.6 1.6 0 2.6-.5 3-1.8a6.28 6.28 0 0 0 .3-1.9c.1-.7.5-1 1.2-1 1 0 1.6.6 1.8 1.6.3 1.3.1 2.6.2 3.9.1.8-.3 1-1 1.2-1.9.5-3.8.9-5.6 1.7-1.7.8-2.9 1.9-3.1 3.9 0 .6-.1 1.2 0 1.9.5 1.7 1.5 2.8 3.3 3.2 2.2.5 4.3.3 6.1-1.3.2-.2.3-.8.9-.2 1.9 2.1 6.1 2.3 8.2.6.4-.2.4-.5.4-.9zm-10.1-.9c-.8.2-1.5-.1-1.8-.8a5.36 5.36 0 0 1 0-4.3c.4-1 1.4-1 2.3-.9.5 0 .4.5.4.8v3.8c.1.7-.1 1.3-.9 1.4zM79.1 16.6h9.2c.8 0 1-.2 1-1-.2-4.9-3-7.6-8-7.8-4.1-.2-7.7 2-9.2 5.5-1.6 3.9-.8 9 1.9 11.5 3.5 3.3 11.4 2.8 14.3-.9.4-.5.4-1 .2-1.7-1.4.7-2.8 1.1-4.3 1.2-3.7.2-5.6-1-6.2-4.8 0-.3-.1-.5-.1-.8 0-.8.1-1.2 1.2-1.2zm-.9-3.7c.1-.8.3-1.6.7-2.4s1-1.2 1.9-1.1 1.4.6 1.7 1.4c.4 1.1.3 2.2.4 3.4 0 .5-.3.7-.7.7-.7 0-1.3.1-2 .1-2.3 0-2.3 0-2-2.1z"/></svg>